<?xml version="1.0" encoding="utf-8"?>
<!-- Generator: Adobe Illustrator 19.0.0, SVG Export Plug-In . SVG Version: 6.00 Build 0)  -->
<svg version="1.1" baseProfile="tiny" id="图层_1"
	 xmlns="http://www.w3.org/2000/svg" xmlns:xlink="http://www.w3.org/1999/xlink" x="0px" y="0px" viewBox="0 0 1274.6 45.7"
	 xml:space="preserve">
<g>
	<circle fill="#786958" cx="903.5" cy="5.6" r="5.2"/>
	<circle fill="#786958" cx="840.5" cy="13.8" r="2.2"/>
	<circle fill="#786958" cx="767.2" cy="6.3" r="3.4"/>
	<circle fill="#786958" cx="767.5" cy="38.1" r="3.8"/>
	<circle fill="#786958" cx="693.4" cy="6.6" r="6.2"/>
	<circle fill="#786958" cx="702.5" cy="42.8" r="4.7"/>
	<circle fill="#786958" cx="648.5" cy="34.1" r="2.5"/>
	<circle fill="#786958" cx="640.7" cy="11.9" r="3.2"/>
	<circle fill="#786958" cx="816" cy="1.9" r="1.9"/>
	<circle fill="#786958" cx="873.4" cy="38.2" r="3.3"/>
	<circle fill="#786958" cx="932.4" cy="39.3" r="2.6"/>
	<circle fill="#786958" cx="992.7" cy="36.4" r="4.8"/>
	<circle fill="#786958" cx="1045.8" cy="45.2" r="2.2"/>
	<circle fill="#786958" cx="949.8" cy="8.7" r="1.8"/>
	<circle fill="#786958" cx="1230.9" cy="41.9" r="3.8"/>
	<circle fill="#786958" cx="1235.6" cy="6.2" r="3.2"/>
	<circle fill="#786958" cx="1272.3" cy="0.8" r="2.2"/>
</g>
<g id="XMLID_93_">
	<circle id="XMLID_110_" fill="#786958" cx="266" cy="5.8" r="5.2"/>
	<circle id="XMLID_109_" fill="#786958" cx="203.1" cy="14" r="2.2"/>
	<circle id="XMLID_108_" fill="#786958" cx="129.7" cy="6.5" r="3.4"/>
	<circle id="XMLID_107_" fill="#786958" cx="130.1" cy="38.3" r="3.8"/>
	<circle id="XMLID_106_" fill="#786958" cx="55.9" cy="6.8" r="6.2"/>
	<circle id="XMLID_105_" fill="#786958" cx="65" cy="43" r="4.7"/>
	<circle id="XMLID_104_" fill="#786958" cx="11.1" cy="34.3" r="2.5"/>
	<circle id="XMLID_103_" fill="#786958" cx="3.2" cy="12.1" r="3.2"/>
	<circle id="XMLID_102_" fill="#786958" cx="178.5" cy="2.1" r="1.9"/>
	<circle id="XMLID_101_" fill="#786958" cx="235.9" cy="38.4" r="3.3"/>
	<circle id="XMLID_100_" fill="#786958" cx="294.9" cy="39.5" r="2.6"/>
	<circle id="XMLID_99_" fill="#786958" cx="355.2" cy="36.6" r="4.8"/>
	<circle id="XMLID_98_" fill="#786958" cx="408.3" cy="45.4" r="2.2"/>
	<circle id="XMLID_97_" fill="#786958" cx="312.3" cy="8.9" r="1.8"/>
	<circle id="XMLID_96_" fill="#786958" cx="593.5" cy="42.1" r="3.8"/>
	<circle id="XMLID_95_" fill="#786958" cx="598.1" cy="6.4" r="3.2"/>
	<circle id="XMLID_94_" fill="#786958" cx="634.9" cy="1" r="2.2"/>
</g>
</svg>
