<?xml version="1.0" encoding="utf-8"?>
<!-- Generator: Adobe Illustrator 19.0.0, SVG Export Plug-In . SVG Version: 6.00 Build 0)  -->
<svg version="1.1" baseProfile="tiny" id="图层_1"
	 xmlns="http://www.w3.org/2000/svg" xmlns:xlink="http://www.w3.org/1999/xlink" x="0px" y="0px" viewBox="0 0 283.5 283.5"
	 xml:space="preserve">
<path fill="#786958" d="M90.9,192.1h45.8l23.8,12.2h103.4l-7.4-21.4h6.6c2.7,0,4.6-2.8,3.5-5.3l-10.1-23.5l-55.7-19.8l-125,14.8
	l-6.2,33.8l9.1,5.7C82.3,190.8,86.6,192.1,90.9,192.1z"/>
<path fill="#333333" d="M250.7,161.6h12c2.4,0,4.4,2,4.4,4.4l0,0c0,2.4-2,4.4-4.4,4.4h-12c-2.5,0-4.4-2-4.4-4.4l0,0
	C246.2,163.6,248.2,161.6,250.7,161.6z"/>
<path id="XMLID_1_" fill="#333333" d="M257.3,131.1l-3,1.3l-13.5-30.3l3-1.3c3.4-1.5,7.3,0,8.8,3.4l8.1,18.1
	C262.2,125.6,260.7,129.6,257.3,131.1z"/>
<path fill="#333333" d="M232.8,172.2H48.1c-5.4,0-10.6-2-14.4-5.6l-5-4.8v-35.4h217.2v37.7l-1.8,2.5
	C241.5,170.1,237.3,172.2,232.8,172.2z"/>
<path fill="#2185D6" d="M256.4,136.3l-16.8-36.6c-3-6.5-9.5-10.7-16.7-10.7H115.7c-5.7,0-11.1,2.5-14.8,6.8l-16.5,19.3l-0.5-0.1
	l-51.4,7.5c-3.3,0.5-6.3,1.8-8.9,3.8l0,0c-4.7,3.6-7.5,9.2-7.5,15.1l0,2.5c0,3,0.7,6.1,2.1,8.8l0,0c5.9,4.1,8.5,6.3,11.9,9.8
	l17.4,0.1l12.5-21.7h26.4L99,163l78,0.4l13-22.5h26.4l13.1,22.8l18.8,0.1c4.5,0,8.1-3.6,8.1-8.1V136.3z"/>
<path fill="#2E83D8" d="M16,141.5l0,2.5c0,3,0.7,6.1,2.1,8.8c3.8,4.3,8.3,6.9,11.9,9.8l17.4,0.1l12.5-18.7h26.4L99,163l78,0.4
	l13-19.5h26.4l13.1,19.8l18.5,0.1c4.6,0,8.4-3.7,8.4-8.4v-19.1l-2.7-5.8H19.6C17.3,133.7,16,137.5,16,141.5z"/>
<path fill="#2185D6" d="M83.9,115.1l-51.4,7.5c-3.3,0.5-6.3,1.8-8.9,3.8l0,0c-1.1,0.8-2,1.8-2.9,2.8h66.9v12.7l12.5,21.1l44.4,0.2
	h0.4V92h-39.5c-0.7,0.5-1.5,1-2.1,1.6c-0.1,0.1-0.2,0.2-0.4,0.3c-0.7,0.6-1.3,1.2-1.9,1.9l-16.5,19.3L83.9,115.1z"/>
<path fill="#FF3300" d="M247.9,151.8h6.5c1.1,0,2-0.8,2-1.7v-11.8l-0.1-0.2h-8.4c-1.1,0-2,0.8-2,1.7v10.3
	C245.9,151,246.8,151.8,247.9,151.8z"/>
<path fill="#FFA733" d="M245.9,142.9v7.1c0,1,0.9,1.7,2,1.7h6.5c1.1,0,2-0.8,2-1.7v-7.1H245.9z"/>
<polygon fill="#64D0FF" points="144.5,92 144.5,163.2 177,163.4 189.9,143.9 198.3,143.9 198.3,126.4 182.8,92 "/>
<path fill="#64D0FF" d="M255.7,134.6l-3.7-8.2H23.4c-2.8,2.1-4.8,5-6.1,8.2H255.7z"/>
<path fill="#FFFFFF" d="M218,141.7l-28.1,0.3l-12.8,15.4h-76.3l-13.3-15.5H59.9l-7.8,5.8L23,147l-6.7,0c0.5,3,0.5,3,1.8,5.7l1.1,2.1
	c2.4,4.7,7.2,7.7,12.4,7.7l15.8,0.1l12.5-15.5h26.4L99,163l78,0.4l13-16.2h26.4l13.1,16.5l24.6,0.1c3.6,0,6.5-2.9,6.5-6.5v-2.4
	c0-3.6-2.6-5.7-6.2-5.6l-28.1-0.1L218,141.7z"/>
<polygon fill="#BFBFBF" points="188.7,125.1 178.1,96.7 150.9,96.7 150.9,125.1 "/>
<path fill="#BFBFBF" d="M241.1,125.1l-3.8-5.9c-7.3-11.3-17.5-19.5-32.4-21.1c-8.2-0.9-16.2-1.4-16.2-1.4l13,28.4H241.1z"/>
<polygon fill="#BFBFBF" points="106.5,96.7 87.6,125.1 136.2,125.1 136.2,96.7 "/>
<rect x="120.4" y="136.1" fill="#8C3F3A" width="17.2" height="4"/>
<rect x="166.8" y="136.1" fill="#8C3F3A" width="17.2" height="4"/>
<ellipse cx="203.2" cy="172.2" rx="20.4" ry="20.4"/>
<ellipse fill="#FCEAAE" cx="203.2" cy="172.2" rx="9" ry="9"/>
<circle fill="#6E6051" cx="203.2" cy="172.2" r="3.1"/>
<ellipse cx="72.6" cy="172.2" rx="20.4" ry="20.4"/>
<ellipse fill="#FCEAAE" cx="72.6" cy="172.2" rx="9" ry="9"/>
<circle fill="#6E6051" cx="72.6" cy="172.2" r="3.1"/>
<path fill="#FFFFFF" d="M17.7,141.8c3.9,0,7.4-2.1,9.2-5.5l3.9-7.2H20.6c-2.9,3.4-4.6,7.8-4.6,12.4l0,0.4H17.7z"/>
<path fill="#333333" d="M206.2,86.2c-0.3-1.8-1.7-5.4-7.1-5.4c-1.4,0-34.9,0-34.9,0h-5.5c0,0-28.9,0-33.2,0s-6.8,3.6-7.1,5.4L118,89
	h6h1.7h33h5.5H199h2.8h4.9L206.2,86.2z M125.7,86.6v-4.9h33v4.9H125.7z M164.3,86.6v-4.9H199v4.9H164.3z"/>
<path fill="#FFFFFF" d="M233,92c-2.9-1.9-6.4-3-10.1-3H115.7c-3.7,0-7.3,1.1-10.4,3H233z"/>
<polygon fill="#878787" points="114.2,125.1 131.9,96.7 114.7,96.7 97,125.1 "/>
<polygon fill="#878787" points="127.6,125.1 136.2,111.3 136.2,99.2 120,125.1 "/>
<polygon fill="#878787" points="178.1,96.7 170.3,96.7 152.6,125.1 169.7,125.1 181.6,106 "/>
<path fill="#878787" d="M228.4,108.6c-3.6-3.2-7.6-5.9-12.3-7.7l-12.8,20.6l0.5,1.3h15.8L228.4,108.6z"/>
<polygon fill="#878787" points="183.8,111.9 175.5,125.1 183.1,125.1 186.6,119.5 "/>
<g>
	<polygon fill="#333333" points="91.3,119.5 87.6,125.1 136.2,125.1 136.2,119.5 	"/>
	<polygon fill="#333333" points="150.9,125.1 188.7,125.1 186.6,119.5 150.9,119.5 	"/>
	<polygon fill="#333333" points="201.7,125.1 241.1,125.1 237.4,119.5 199.4,119.5 	"/>
</g>
<g>
	<polygon fill="#FCC71C" points="35.4,144.7 33.3,144.7 36.3,138.6 38.4,138.6 	"/>
	<polygon fill="#FCC71C" points="39.8,144.7 37.7,144.7 40.8,138.6 42.8,138.6 	"/>
	<polygon fill="#FCC71C" points="44.2,144.7 42.2,144.7 45.2,138.6 47.3,138.6 	"/>
</g>
<g>
	<polygon fill="#8C3F3A" points="224.1,96.1 222,96.1 225.1,102.2 227.2,102.2 	"/>
	<polygon fill="#8C3F3A" points="228.6,96.1 226.5,96.1 229.5,102.2 231.6,102.2 	"/>
	<polygon fill="#8C3F3A" points="233,96.1 230.9,96.1 233.9,102.2 236,102.2 	"/>
</g>
</svg>
