<?xml version="1.0" encoding="utf-8"?>
<!-- Generator: Adobe Illustrator 19.0.0, SVG Export Plug-In . SVG Version: 6.00 Build 0)  -->
<svg version="1.1" id="图层_1" xmlns="http://www.w3.org/2000/svg" xmlns:xlink="http://www.w3.org/1999/xlink" x="0px" y="0px"
	 viewBox="-484.6 0 1315 283.5" style="enable-background:new -484.6 0 1315 283.5;" xml:space="preserve">
<style type="text/css">
	.st0{fill:#F8E9C9;}
</style>
<g>
	<rect x="257.2" y="184.5" class="st0" width="48.5" height="11.4"/>
	<rect x="186.4" y="184.5" class="st0" width="48.5" height="11.4"/>
	<rect x="336.2" y="184.5" class="st0" width="48.5" height="11.4"/>
	<rect x="409.9" y="184.5" class="st0" width="48.5" height="11.4"/>
</g>
<g>
	<rect x="556" y="184.5" class="st0" width="48.5" height="11.4"/>
	<rect x="485.3" y="184.5" class="st0" width="48.5" height="11.4"/>
	<rect x="635" y="184.5" class="st0" width="48.5" height="11.4"/>
	<rect x="708.7" y="184.5" class="st0" width="48.5" height="11.4"/>
</g>
<rect x="781.6" y="184.5" class="st0" width="48.5" height="11.4"/>
<g>
	<rect x="-413.8" y="183.5" class="st0" width="48.5" height="11.4"/>
	<rect x="-484.6" y="183.5" class="st0" width="48.5" height="11.4"/>
	<rect x="-334.8" y="183.5" class="st0" width="48.5" height="11.4"/>
	<rect x="-261.1" y="183.5" class="st0" width="48.5" height="11.4"/>
</g>
<g>
	<rect x="-115" y="183.5" class="st0" width="48.5" height="11.4"/>
	<rect x="-185.7" y="183.5" class="st0" width="48.5" height="11.4"/>
	<rect x="-36" y="183.5" class="st0" width="48.5" height="11.4"/>
	<rect x="37.7" y="183.5" class="st0" width="48.5" height="11.4"/>
</g>
<rect x="110.6" y="183.5" class="st0" width="48.5" height="11.4"/>
</svg>
