<?xml version="1.0" encoding="utf-8"?>
<!-- Generator: Adobe Illustrator 19.0.0, SVG Export Plug-In . SVG Version: 6.00 Build 0)  -->
<svg version="1.1" baseProfile="tiny" id="图层_1"
	 xmlns="http://www.w3.org/2000/svg" xmlns:xlink="http://www.w3.org/1999/xlink" x="0px" y="0px" viewBox="0 0 42.3 22.5"
	 xml:space="preserve">
<g id="XMLID_479_">
	<path id="XMLID_481_" fill="#6493C2" stroke="#6493C2" stroke-miterlimit="10" d="M17.4,10.7l-1.7-1.6c-0.3-0.3-0.3-0.8,0-1.1l0,0
		c0.3-0.3,0.9-0.3,1.2,0l1.7,1.6c0.3,0.3,0.3,0.8,0,1.1l0,0C18.2,11,17.7,11,17.4,10.7z"/>
	<path id="XMLID_480_" fill="#6493C2" stroke="#6493C2" stroke-miterlimit="10" d="M19.1,9.6L20.8,8c0.3-0.3,0.9-0.3,1.2,0v0
		c0.3,0.3,0.3,0.8,0,1.1l-1.7,1.6c-0.3,0.3-0.9,0.3-1.2,0v0C18.8,10.4,18.8,9.9,19.1,9.6z"/>
</g>
<path id="XMLID_478_" fill="#6493C2" stroke="#6493C2" stroke-miterlimit="10" d="M6.7,2.8l-3.5,8.5c-0.2,0.4-0.7,0.7-1.1,0.5l0,0
	c-0.4-0.2-0.7-0.7-0.5-1.1l3.5-8.5c0.2-0.4,0.7-0.7,1.1-0.5l0,0C6.7,1.8,6.9,2.4,6.7,2.8z"/>
<path id="XMLID_477_" fill="#6493C2" stroke="#6493C2" stroke-miterlimit="10" d="M11.9,7.3H5.1c-0.5,0-0.9-0.4-0.9-0.9v0
	c0-0.5,0.4-0.9,0.9-0.9h6.9c0.5,0,0.9,0.4,0.9,0.9v0C12.8,6.9,12.4,7.3,11.9,7.3z"/>
<path id="XMLID_476_" fill="#6493C2" stroke="#6493C2" stroke-miterlimit="10" d="M12.3,14.7H2.7c-0.5,0-0.9-0.4-0.9-0.9v0
	c0-0.5,0.4-0.9,0.9-0.9h9.5c0.5,0,0.9,0.4,0.9,0.9v0C13.1,14.4,12.7,14.7,12.3,14.7z"/>
<path id="XMLID_475_" fill="#6493C2" stroke="#6493C2" stroke-miterlimit="10" d="M8.5,9.8L6,20.5c-0.1,0.5-0.6,0.8-1,0.6h0
	c-0.5-0.1-0.8-0.6-0.6-1L6.8,9.4c0.1-0.5,0.6-0.8,1-0.6h0C8.3,8.9,8.6,9.3,8.5,9.8z"/>
<path id="XMLID_474_" fill="#6493C2" stroke="#6493C2" stroke-miterlimit="10" d="M38.7,7.3l-8.4,9.8c-0.3,0.4-0.9,0.4-1.2,0.1l0,0
	c-0.4-0.3-0.4-0.9-0.1-1.2l8.4-9.8c0.3-0.4,0.9-0.4,1.2-0.1l0,0C39,6.4,39,6.9,38.7,7.3z"/>
<path id="XMLID_473_" fill="#6493C2" stroke="#6493C2" stroke-miterlimit="10" d="M27.1,14.9l-1.2,5.4c-0.1,0.5-0.6,0.8-1,0.7h0
	c-0.5-0.1-0.8-0.6-0.7-1l1.2-5.4c0.1-0.5,0.6-0.8,1-0.7l0,0C26.9,13.9,27.2,14.4,27.1,14.9z"/>
<path id="XMLID_472_" fill="#6493C2" stroke="#6493C2" stroke-miterlimit="10" d="M40.1,21.2l-14.4-4c-0.5-0.1-0.7-0.6-0.6-1.1v0
	c0.1-0.5,0.6-0.7,1.1-0.6l14.4,4c0.5,0.1,0.7,0.6,0.6,1.1l0,0C41,21.1,40.5,21.4,40.1,21.2z"/>
<path id="XMLID_471_" fill="none" stroke="#6493C2" stroke-width="2.75" stroke-miterlimit="10" d="M20.5,18h-3.6
	c-0.9,0-1.6-0.7-1.6-1.6v-3.6c0-0.9,0.7-1.6,1.6-1.6h3.6c0.9,0,1.6,0.7,1.6,1.6v3.6C22.1,17.3,21.4,18,20.5,18z"/>
<circle id="XMLID_452_" fill="#6493C2" stroke="#6493C2" stroke-miterlimit="10" cx="31.2" cy="2.9" r="1.3"/>
<circle id="XMLID_451_" fill="#6493C2" stroke="#6493C2" stroke-miterlimit="10" cx="9.8" cy="18.4" r="1.3"/>
<path id="XMLID_436_" fill="#6493C2" stroke="#6493C2" stroke-miterlimit="10" d="M38.2,7.3H25.6c-0.5,0-0.9-0.4-0.9-0.9v0
	c0-0.5,0.4-0.9,0.9-0.9h12.7c0.5,0,0.9,0.4,0.9,0.9v0C39.1,6.9,38.7,7.3,38.2,7.3z"/>
</svg>
