<?xml version="1.0" encoding="utf-8"?>
<!-- Generator: Adobe Illustrator 19.0.0, SVG Export Plug-In . SVG Version: 6.00 Build 0)  -->
<svg version="1.1" baseProfile="tiny" id="图层_1"
	 xmlns="http://www.w3.org/2000/svg" xmlns:xlink="http://www.w3.org/1999/xlink" x="0px" y="0px" viewBox="0 0 283.5 283.5"
	 xml:space="preserve">
<rect id="XMLID_33_" x="110.4" y="143.7" fill="#BAB194" width="6.6" height="53.1"/>
<g id="XMLID_30_">
	<ellipse id="XMLID_32_" fill="#FF3322" cx="113.7" cy="118.6" rx="28.7" ry="28.7"/>
	<ellipse id="XMLID_31_" fill="#FFFFFF" cx="113.7" cy="118.6" rx="22.1" ry="22.1"/>
</g>
<path id="XMLID_29_" fill="#FFFFFF" d="M191,100.4c-0.1,0-0.2,0-0.3,0c0.3-1,0.5-2.1,0.5-3.3c0-6.5-5.2-11.7-11.7-11.7
	c-6.3,0-11.5,5.1-11.7,11.4c-0.1,0-0.2,0-0.4,0c-4.7,0-8.5,3.4-9.1,7.9c-0.2,0-0.4,0-0.6,0c-1.9,0-3.7,0.6-5.2,1.7h47.4
	C198.4,102.8,195,100.4,191,100.4z"/>
<text id="XMLID_28_" transform="matrix(1 0 0 1 97.8933 125.2001)" font-family="'PingFangSC-Medium-GBpc-EUC-H'" font-size="18.7675px">120</text>
</svg>
